<?xml version="1.0" encoding="utf-8"?>
<!-- Generator: Adobe Illustrator 26.0.3, SVG Export Plug-In . SVG Version: 6.00 Build 0)  -->
<svg version="1.1" xmlns="http://www.w3.org/2000/svg" xmlns:xlink="http://www.w3.org/1999/xlink" x="0px" y="0px"
	 viewBox="0 0 800 800" style="enable-background:new 0 0 800 800;" xml:space="preserve">
<style type="text/css">
	.st0{fill:#FFFFFF;}
	.st1{fill-rule:evenodd;clip-rule:evenodd;fill:#727270;}
	.st2{fill-rule:evenodd;clip-rule:evenodd;fill:#67CDFD;}
	.st3{fill-rule:evenodd;clip-rule:evenodd;fill:#062D45;stroke:#221F20;stroke-width:0.4819;stroke-miterlimit:10;}
	.st4{fill:#FEFEFE;}
</style>
<g id="_x39_">
	<rect class="st0" width="800" height="797.7"/>
	<path class="st1" d="M218.1,219.4c0-0.1,0.1-0.1,0.1-0.2c0-0.1,0.1-0.2,0.2-0.3c0-0.1,0.1-0.3,0.1-0.4c0-0.1,0-0.1,0.1-0.3
		c0.1-0.5,0.1-0.9,0-1.3c0-0.1,0-0.1-0.1-0.2c0-0.1,0-0.3-0.1-0.4c-0.1-0.1-0.1-0.2-0.2-0.3c0-0.1-0.1-0.1-0.1-0.3
		c-0.1-0.1-0.3-0.4-0.4-0.5l-10-9.9c-1.3-1.3-3.4-1.3-4.7,0c-1.3,1.3-1.3,3.5,0,4.8l4.2,4.2h-15.8c-1.9,0-3.4,1.5-3.4,3.4
		c0,1.9,1.5,3.3,3.4,3.3h15.8l-4.2,4.2c-1.3,1.3-1.3,3.4,0,4.7c0.7,0.7,1.5,1,2.4,1c0.8,0,1.7-0.3,2.3-1l10-9.9
		C217.8,219.8,218,219.6,218.1,219.4L218.1,219.4z"/>
	<g>
		<polygon class="st2" points="315.4,493 315.4,493 296.7,511.7 315.4,530.4 319.5,526.4 304.7,511.7 319.5,497 		"/>
		<polygon class="st1" points="302.1,493 283.3,511.7 302.1,530.4 306.1,526.4 291.4,511.7 306.1,497 		"/>
	</g>
	<g>
		<polygon class="st2" points="116,203.4 116,203.4 124.3,203.4 110.1,217.5 124.3,231.7 116,231.7 101.8,217.5 		"/>
		<polygon class="st1" points="100.3,203.4 108.5,203.4 94.4,217.5 108.5,231.7 100.3,231.7 86,217.5 		"/>
	</g>
	<polygon class="st1" points="288.5,217.5 314.4,236.2 314.4,199 	"/>
	<g>
		<polygon class="st2" points="103.9,617.8 103.9,617.8 125.8,617.8 125.8,601.7 104.1,601.7 98,609.9 		"/>
		<polygon class="st1" points="84.6,609.9 96.2,625.4 106.4,625.4 94.7,609.9 106.4,594.4 106.7,594 96.5,594 96.2,594.4 		"/>
	</g>
	<path class="st1" d="M224.5,503.9l-20.7,20.7c-0.3,0.3-0.6,0.3-0.8,0l-20.7-20.7c-0.2-0.2-0.2-0.6,0-0.8l4.5-4.5l16.2,16.2
		c0.2,0.2,0.6,0.2,0.8,0l16.2-16.2l4.5,4.5C224.7,503.3,224.7,503.7,224.5,503.9L224.5,503.9z"/>
	<path class="st1" d="M385.8,206.5V231c0,0.3,0.2,0.5,0.5,0.5h24.4c0.3,0,0.5-0.3,0.5-0.5v-5.4h-15.4l17.8-17.8l-4.1-4.1l-17.8,17.8
		V206h-5.4C386,206,385.8,206.2,385.8,206.5L385.8,206.5z"/>
	<path class="st1" d="M112.8,512.7v-17.8c0-2.6-2.6-5.3-5.3-5.3H93.9c2.6,0,5.2,2.7,5.2,5.3v17.8h-3.7l10.5,20.9l10.4-20.9H112.8z"
		/>
	<polygon class="st1" points="396.1,520.5 390.6,518.5 399.8,530.7 408.9,518.5 403.3,520.5 399.8,492.6 	"/>
	<path class="st1" d="M520,598.8l-1-0.9l-20.7,20.7c-0.3,0.2-0.6,0.2-0.9,0l-20.7-20.7l-1,0.9c-0.2,0.2-0.2,0.6,0,0.9l21.7,21.7
		c0.3,0.2,0.6,0.2,0.9,0l21.7-21.7C520.3,599.5,520.3,599.1,520,598.8L520,598.8z"/>
	<g>
		<polygon class="st2" points="613,106.8 613,106.8 596.1,123.8 579.2,106.8 582.8,103.2 596.1,116.5 609.4,103.2 		"/>
		<polygon class="st1" points="613,118.9 596.1,135.8 579.2,118.9 582.8,115.3 596.1,128.6 609.4,115.3 		"/>
	</g>
	<path class="st1" d="M321.9,599.3l-0.1-0.1l-20,19.9c-0.2,0.2-0.6,0.2-0.8,0l-19.9-19.9l-0.2,0.1c-0.3,0.2-0.3,0.6,0,0.8l20.1,20.1
		c0.2,0.2,0.6,0.2,0.8,0l20.1-20.1C322.2,599.8,322.2,599.5,321.9,599.3L321.9,599.3z"/>
	<path class="st1" d="M107,103l7.4,7.4c1,1,1,2.6,0,3.5c-1,0.9-2.6,0.9-3.5,0l-3.2-3.1v23.4c0,1.3-1.1,2.5-2.5,2.5
		c-1.4,0-2.5-1.2-2.5-2.5v-23.4l-3.1,3.1c-1,0.9-2.6,0.9-3.5,0c-0.5-0.5-0.7-1.1-0.7-1.7c0-0.7,0.3-1.3,0.7-1.8l7.4-7.4
		c0.3-0.3,0.5-0.4,0.8-0.5c0.3-0.1,0.6-0.2,0.9-0.2C105.9,102.3,106.5,102.5,107,103L107,103z"/>
	<polygon class="st1" points="203.4,105.3 182.8,133.8 223.9,133.8 	"/>
	<polygon class="st1" points="677.2,117.6 681.8,122.2 691,112.9 691,138.5 697.5,138.5 697.5,112.9 706.8,122.2 711.4,117.6 
		694.2,100.6 	"/>
	<g>
		<polygon class="st2" points="203.4,605.4 203.4,605.4 196.4,617.5 189.4,629.7 194.3,629.7 196.4,626.2 203.4,614 210.3,626.2 
			212.4,629.7 217.3,629.7 210.3,617.5 		"/>
		<polygon class="st1" points="203.4,589.8 196.4,601.9 189.4,614 194.3,614 196.4,610.5 203.4,598.4 210.3,610.5 212.4,614 
			217.3,614 210.3,601.9 		"/>
	</g>
	<g>
		<polygon class="st2" points="399.6,599.1 399.6,599.1 388.2,607.7 388.2,615.1 399.6,606.6 411,615.1 411.3,615.4 411.3,607.9 
			411,607.7 		"/>
		<polygon class="st2" points="399.6,589.5 399.6,589.5 390.4,596.4 390.4,602.4 399.6,595.6 408.8,602.4 409.1,602.5 409.1,596.6 
			408.8,596.4 		"/>
		<polygon class="st1" points="399.5,610.6 386,620.8 386,629.7 399.5,619.5 413.2,629.7 413.5,629.9 413.5,621 413.2,620.8 		"/>
	</g>
	<g>
		<polygon class="st2" points="588.7,608.5 588.7,608.5 588.7,628.7 603.5,628.7 603.5,608.7 595.9,603 		"/>
		<polygon class="st1" points="595.9,590.7 581.6,601.4 581.6,610.9 595.9,600.1 610.3,610.9 610.5,611.1 610.5,601.7 610.3,601.4 
					"/>
	</g>
	<path class="st1" d="M507,530.2l0.8-0.8L490.5,512c-0.2-0.2-0.2-0.5,0-0.7l17.3-17.3l-0.8-0.8c-0.2-0.2-0.6-0.2-0.7,0l-18,18.1
		c-0.2,0.2-0.2,0.5,0,0.7l18,18.2C506.4,530.3,506.8,530.3,507,530.2L507,530.2z"/>
	<g>
		<polygon class="st2" points="708.7,530.9 708.7,530.9 689.5,511.7 708.7,492.4 712.9,496.5 697.7,511.7 712.9,526.8 		"/>
		<polygon class="st1" points="694.9,530.9 675.7,511.7 694.9,492.4 699.1,496.5 683.9,511.7 699.1,526.8 		"/>
	</g>
	<path class="st1" d="M695.7,402.4l18.6,18.6c0.7,0.7,0.7,2.1,0,2.9l-1.7,1.7l-16.8-16.8c-0.7-0.9-2.1-0.9-2.9,0L676,425.5l-1.7-1.7
		c-0.9-0.8-0.9-2.1,0-2.9l18.6-18.6C693.6,401.6,695,401.6,695.7,402.4L695.7,402.4z"/>
	<path class="st1" d="M601.1,494.1L586,509.2c-1.4,1.4-1.4,3.5,0,4.8l15.1,15.1c1.4,1.4,3.3,1.8,4.7,0.3l0.6-0.6
		c1-1.2,1.2-2.6,0.1-3.7c-3.8-3.6-7.5-7.4-11.2-11.2c-1.4-1.4-1.4-3.5,0-4.8c3.6-3.6,7.4-7.4,11.2-11.2c1.1-1,0.9-2.5-0.1-3.6
		l-0.6-0.6C604.4,492.5,602.5,492.7,601.1,494.1L601.1,494.1z"/>
	<path class="st1" d="M596.1,393.1c5.8,0,10.8,2.2,14.6,6c3.7,3.7,5.9,8.9,5.9,14.5c0,5.6-2.2,10.8-5.9,14.4
		c-3.8,3.7-8.9,6.1-14.6,6.1c-5.6,0-10.8-2.4-14.4-6.1c-3.7-3.7-6-8.8-6-14.4c0-5.6,2.3-10.8,6-14.5
		C585.3,395.4,590.4,393.1,596.1,393.1L596.1,393.1z M593.8,405L593.8,405l8.4,8.4c0,0.1,0,0.3,0,0.4l-8.4,8.4
		c-0.1,0.1-0.2,0.1-0.4,0l-1.9-1.8l6.6-6.6c0-0.1,0-0.2,0-0.4l-6.6-6.5l1.9-1.9C593.5,404.9,593.6,404.9,593.8,405L593.8,405z"/>
	<path class="st1" d="M614.7,212.2l-16.1,16.1c-1.4,1.4-3.6,1.4-5,0l-16.2-16.1c-1.4-1.4-1.7-3.4-0.3-4.9l0.6-0.5
		c1.3-1.2,2.8-1.4,4-0.2c4,3.9,7.9,7.9,11.9,11.9c1.4,1.4,3.6,1.4,5,0c4-4,7.9-7.9,11.9-11.9c1.1-1.3,2.6-1,3.9,0.2l0.7,0.5
		C616.4,208.8,616.1,210.8,614.7,212.2L614.7,212.2z"/>
	<path class="st1" d="M704.4,205.3v12.1h6.9l-9.5,17.3c-0.1,0.2-0.3,0.2-0.4,0l-9.5-17.3h6.8h0.6v-7c0-2.8-2.3-5-5-5
		c-7.5,0-7.2,0-14.6,0c-1.4,0-2.5-1.2-2.5-2.6l0,0c0-1.4,1.1-2.5,2.5-2.5c9.2,0,10.5,0,19.7,0C702.1,200.3,704.4,202.5,704.4,205.3
		L704.4,205.3z"/>
	<path class="st1" d="M500.6,304.8l15.9,15.9c1.5,1.5,1.5,4,0,5.5l-0.2,0.2c-1.6,1.6-4,1.6-5.5,0.1l-10.3-10.2c-1.5-1.5-4-1.5-5.5,0
		l-10.2,10.2c-1.5,1.5-4,1.5-5.5-0.1l-0.2-0.2c-1.6-1.5-1.6-4,0-5.5l15.9-15.9C496.7,303.3,499.1,303.3,500.6,304.8L500.6,304.8z"/>
	<g>
		<polygon class="st2" points="713.2,315.6 700.6,296.7 691.4,296.7 704,315.6 691.4,334.5 700.6,334.5 		"/>
		<polygon class="st1" points="684.5,296.7 675.4,296.7 687.9,315.6 675.4,334.5 684.5,334.5 697,315.6 		"/>
	</g>
	<polygon class="st1" points="594.5,298.1 586,298.1 597.7,315.6 586,333.1 594.5,333.1 606.2,315.6 	"/>
	<g>
		<polygon class="st2" points="301.4,333.4 283.6,321.6 283.6,312.9 301.4,324.8 319.3,312.9 319.3,321.6 		"/>
		<polygon class="st1" points="283.6,306.4 283.6,297.7 301.4,309.6 319.3,297.7 319.3,306.4 301.4,318.3 		"/>
	</g>
	<polygon class="st1" points="401.4,297.1 410.3,297.1 398,315.6 410.3,334 401.4,334 389.1,315.6 	"/>
	<polygon class="st1" points="110.5,330.3 87.5,330 99.9,315.6 87.8,300.9 110.8,301.2 122.9,315.8 	"/>
	<path class="st1" d="M517.8,211.8l-17.2,17.3c-1.5,1.5-3.9,1.5-5.4,0l-17.2-17.3c-1.5-1.5-1.9-3.7-0.3-5.2l0.6-0.6
		c1.4-1.2,3-1.5,4.2-0.1c4.2,4.2,8.4,8.4,12.7,12.7c1.5,1.5,3.9,1.5,5.4,0c4.2-4.2,8.5-8.5,12.7-12.7c1.2-1.4,2.8-1.1,4.2,0.1
		l0.6,0.6C519.7,208.1,519.4,210.3,517.8,211.8L517.8,211.8z"/>
	<g>
		<polygon class="st1" points="209.3,308.8 223.1,308.8 223.1,322.4 209.3,322.4 214.2,328.3 206.6,328.3 196.1,315.6 206.6,302.9 
			214.2,302.9 		"/>
		<polygon class="st1" points="201.8,328.3 194.1,328.3 183.6,315.6 194.1,302.9 201.8,302.9 191.3,315.6 		"/>
	</g>
	<g>
		<polygon class="st2" points="320.7,413.6 309,420.4 297.2,427.2 297.2,422.3 300.7,420.4 312.4,413.6 300.7,406.9 297.2,404.9 
			297.2,400.1 309,406.9 		"/>
		<polygon class="st1" points="305.6,413.6 293.9,420.4 282.1,427.2 282.1,422.3 285.5,420.4 297.2,413.6 285.5,406.9 282.1,404.9 
			282.1,400.1 293.9,406.9 		"/>
	</g>
	<path class="st1" d="M105.1,392.9c11.5,0,20.9,9.3,20.9,20.8c0,11.5-9.4,20.8-20.9,20.8c-11.4,0-20.8-9.2-20.8-20.8
		C84.4,402.2,93.7,392.9,105.1,392.9L105.1,392.9z M92.2,424l10.4-10.4V424l10.4-10.4V424h5.2v-20.8H113v10.4l-10.4-10.4v10.4
		l-10.4-10.4V424z"/>
	<polygon class="st1" points="209.8,412.3 204.4,412.3 204.4,407.2 204.4,401.9 209.2,401.9 203.2,392.5 197.5,401.9 202,401.9 
		202,407.2 202,412.3 197,412.3 191.7,412.3 191.7,407.8 182.3,413.4 191.7,419.5 191.7,414.7 197,414.7 202,414.7 202,420.1 
		202,425.4 197.5,425.4 203.2,434.8 209.2,425.4 204.4,425.4 204.4,420.1 204.4,414.7 209.8,414.7 215.1,414.7 215.1,419.5 
		224.4,413.4 215.1,407.8 215.1,412.3 	"/>
	<polygon class="st1" points="504,412.3 491.9,412.3 486.9,412.3 486.9,408.1 478,413.4 486.9,419.2 486.9,414.6 491.9,414.6 
		504,414.6 509,414.6 509,419.2 517.8,413.4 509,408.1 509,412.3 	"/>
	<polygon class="st1" points="405.1,419.7 397.2,406.2 394,400.5 398.8,397.7 387.2,391.3 386.4,405 391.5,402 394.8,407.6 
		402.6,421.2 405.8,426.8 400.7,429.7 412.8,436 413,422.6 408.3,425.3 	"/>
	<g>
		<rect x="252.7" y="5.8" class="st3" width="294.6" height="98"/>
		<g>
			<path class="st4" d="M294.9,64.7c0.1,0.5,0.2,0.8,0.2,1.1c0.1,0.2,0,0.5-0.2,0.5c-0.1,0.2-0.4,0.2-0.7,0.2
				c-0.3,0.1-0.8,0.1-1.4,0.1c-0.6,0-1.1,0-1.5,0c-0.4-0.1-0.6-0.1-0.8-0.2c-0.2-0.1-0.3-0.2-0.4-0.2c-0.1-0.1-0.1-0.2-0.2-0.4
				l-1.5-4.7h-8.9l-1.5,4.6c0,0.2-0.1,0.4-0.2,0.5c-0.1,0.2-0.2,0.2-0.4,0.3c-0.2,0.1-0.5,0.1-0.8,0.1c-0.3,0.1-0.8,0.1-1.2,0.1
				c-0.6,0-1,0-1.3-0.1c-0.4,0-0.5-0.1-0.7-0.2c-0.2-0.2-0.2-0.4-0.2-0.6c0.1-0.2,0.2-0.6,0.3-1l7.3-20.9c0.1-0.2,0.2-0.4,0.2-0.5
				c0.1-0.2,0.2-0.2,0.5-0.3c0.2-0.1,0.5-0.1,0.9-0.1c0.4-0.1,0.8-0.1,1.5-0.1c0.7,0,1.3,0,1.7,0.1c0.5,0,0.8,0,1,0.1
				c0.3,0.1,0.5,0.2,0.5,0.3c0.1,0.2,0.2,0.3,0.2,0.5L294.9,64.7z M284.1,47.4L284.1,47.4l-3.3,10h6.7L284.1,47.4z M308.4,51.2
				c0,0.5-0.1,0.8-0.1,1.1c0,0.3-0.1,0.5-0.1,0.6c-0.1,0.2-0.2,0.3-0.2,0.4c-0.1,0.1-0.2,0.1-0.3,0.1c-0.1,0-0.2,0-0.3-0.1
				c-0.2-0.1-0.2-0.1-0.4-0.2c-0.2,0-0.4-0.1-0.5-0.2c-0.2,0-0.4,0-0.6,0c-0.2,0-0.5,0-0.8,0.2c-0.2,0.1-0.5,0.2-0.8,0.5
				c-0.3,0.2-0.5,0.5-0.8,0.8c-0.3,0.4-0.6,0.8-1,1.4v10.1c0,0.2,0,0.2-0.1,0.4c-0.1,0.1-0.2,0.2-0.4,0.2c-0.2,0-0.5,0.1-0.7,0.1
				c-0.3,0.1-0.7,0.1-1.1,0.1c-0.5,0-0.8,0-1.1-0.1c-0.3,0-0.5-0.1-0.7-0.1c-0.2-0.1-0.3-0.2-0.4-0.2c-0.1-0.2-0.2-0.2-0.2-0.4V49.6
				c0-0.1,0.1-0.2,0.2-0.3c0-0.1,0.2-0.2,0.3-0.2c0.2-0.1,0.3-0.1,0.6-0.2c0.2,0,0.5,0,0.9,0c0.4,0,0.7,0,1,0
				c0.2,0.1,0.4,0.1,0.5,0.2c0.2,0.1,0.2,0.2,0.3,0.2c0.1,0.1,0.1,0.2,0.1,0.3v2.1c0.5-0.6,0.8-1.1,1.2-1.5c0.4-0.4,0.8-0.7,1.1-0.9
				c0.4-0.2,0.7-0.4,1.1-0.5c0.3-0.1,0.6-0.1,1-0.1c0.2,0,0.3,0,0.5,0c0.2,0,0.4,0.1,0.6,0.1c0.2,0.1,0.4,0.1,0.5,0.2
				c0.1,0.1,0.2,0.2,0.3,0.2c0.1,0.1,0.1,0.2,0.2,0.2c0,0.1,0,0.2,0.1,0.3c0,0.2,0,0.3,0,0.5C308.4,50.4,308.4,50.7,308.4,51.2
				L308.4,51.2z M321.6,51.2c0,0.5,0,0.8-0.1,1.1c0,0.3-0.1,0.5-0.1,0.6c-0.1,0.2-0.2,0.3-0.2,0.4c-0.1,0.1-0.2,0.1-0.3,0.1
				c-0.1,0-0.2,0-0.3-0.1c-0.1-0.1-0.2-0.1-0.4-0.2c-0.2,0-0.3-0.1-0.5-0.2c-0.2,0-0.4,0-0.6,0c-0.2,0-0.5,0-0.8,0.2
				c-0.2,0.1-0.5,0.2-0.8,0.5c-0.3,0.2-0.5,0.5-0.8,0.8c-0.3,0.4-0.6,0.8-1,1.4v10.1c0,0.2,0,0.2-0.1,0.4c-0.1,0.1-0.2,0.2-0.4,0.2
				c-0.2,0-0.4,0.1-0.7,0.1c-0.3,0.1-0.7,0.1-1.1,0.1c-0.4,0-0.8,0-1.1-0.1c-0.3,0-0.5-0.1-0.7-0.1c-0.2-0.1-0.3-0.2-0.4-0.2
				c-0.1-0.2-0.2-0.2-0.2-0.4V49.6c0-0.1,0.1-0.2,0.2-0.3c0-0.1,0.2-0.2,0.3-0.2c0.2-0.1,0.4-0.1,0.6-0.2c0.2,0,0.5,0,0.9,0
				c0.4,0,0.7,0,1,0c0.2,0.1,0.5,0.1,0.5,0.2c0.2,0.1,0.3,0.2,0.3,0.2c0.1,0.1,0.2,0.2,0.2,0.3v2.1c0.4-0.6,0.8-1.1,1.1-1.5
				c0.4-0.4,0.8-0.7,1.1-0.9c0.4-0.2,0.7-0.4,1.1-0.5c0.3-0.1,0.6-0.1,1-0.1c0.2,0,0.3,0,0.5,0c0.2,0,0.3,0.1,0.5,0.1
				c0.2,0.1,0.4,0.1,0.5,0.2c0.2,0.1,0.2,0.2,0.3,0.2c0.1,0.1,0.1,0.2,0.2,0.2c0,0.1,0,0.2,0.1,0.3c0,0.2,0,0.3,0.1,0.5
				C321.6,50.4,321.6,50.7,321.6,51.2L321.6,51.2z M340.4,57.6c0,1.4-0.2,2.7-0.5,3.8c-0.4,1.1-0.9,2.1-1.7,2.9
				c-0.8,0.8-1.7,1.5-2.8,1.9c-1.1,0.5-2.4,0.7-3.9,0.7c-1.5,0-2.8-0.2-3.8-0.6c-1.1-0.4-1.9-1-2.6-1.8c-0.8-0.8-1.2-1.7-1.6-2.8
				c-0.3-1.1-0.5-2.4-0.5-3.8c0-1.4,0.2-2.6,0.6-3.7s0.9-2.1,1.7-3c0.7-0.8,1.6-1.5,2.8-1.9c1.1-0.4,2.4-0.6,3.9-0.6
				c1.5,0,2.7,0.2,3.7,0.5c1.1,0.5,2,1,2.7,1.8c0.7,0.8,1.2,1.7,1.5,2.8C340.2,54.8,340.4,56.1,340.4,57.6L340.4,57.6z M335.7,57.7
				c0-0.8-0.1-1.5-0.2-2.1c-0.2-0.7-0.3-1.3-0.7-1.8c-0.3-0.5-0.7-0.9-1.1-1.2c-0.5-0.2-1.1-0.4-1.9-0.4c-0.7,0-1.3,0.2-1.8,0.4
				c-0.5,0.2-0.9,0.6-1.2,1.1c-0.4,0.5-0.6,1.1-0.8,1.8c-0.2,0.6-0.2,1.4-0.2,2.3c0,0.8,0.1,1.5,0.2,2.2c0.2,0.6,0.4,1.2,0.7,1.8
				c0.3,0.5,0.7,0.8,1.2,1.1c0.5,0.2,1.1,0.4,1.9,0.4c0.7,0,1.3-0.2,1.8-0.4c0.5-0.2,1-0.6,1.3-1.1c0.3-0.5,0.5-1.1,0.7-1.7
				C335.5,59.4,335.7,58.7,335.7,57.7L335.7,57.7z M368.7,49.6c0,0.1,0,0.2-0.1,0.5c0,0.2-0.1,0.5-0.2,0.8l-4.4,14.7
				c-0.1,0.2-0.2,0.4-0.2,0.5c-0.1,0.1-0.2,0.2-0.5,0.3c-0.2,0-0.5,0.1-0.8,0.1c-0.4,0.1-0.8,0.1-1.5,0.1c-0.6,0-1.1,0-1.5-0.1
				c-0.4,0-0.7-0.1-0.9-0.2c-0.2-0.1-0.3-0.2-0.5-0.3c-0.1-0.1-0.2-0.2-0.2-0.5l-2.7-9.9l-0.1-0.2v0.2l-2.5,9.9
				c-0.1,0.2-0.2,0.4-0.2,0.5c-0.1,0.1-0.2,0.2-0.5,0.3c-0.2,0-0.5,0.1-0.9,0.1c-0.3,0.1-0.8,0.1-1.5,0.1c-0.5,0-1.1,0-1.5-0.1
				c-0.4,0-0.6-0.1-0.8-0.2c-0.2-0.1-0.4-0.2-0.5-0.3c-0.2-0.1-0.2-0.2-0.2-0.5l-4.3-14.7c-0.2-0.4-0.2-0.6-0.2-0.8
				c0-0.2-0.1-0.4-0.1-0.5c0-0.2,0.1-0.2,0.2-0.4c0.1-0.1,0.2-0.2,0.3-0.2c0.2-0.1,0.5-0.2,0.8-0.2c0.3,0,0.6,0,1.1,0
				c0.5,0,0.9,0,1.2,0c0.3,0,0.5,0.1,0.7,0.2c0.2,0,0.3,0.2,0.4,0.2c0.1,0.1,0.1,0.2,0.2,0.4l3.2,11.9l0.1,0.2v-0.2l3-11.9
				c0.1-0.2,0.2-0.3,0.2-0.4c0.1-0.1,0.2-0.2,0.3-0.2c0.2-0.1,0.4-0.2,0.7-0.2c0.3,0,0.7,0,1.1,0c0.5,0,0.8,0,1.1,0
				c0.2,0.1,0.5,0.1,0.6,0.2c0.2,0.1,0.3,0.1,0.4,0.2c0.1,0.1,0.2,0.2,0.2,0.3l3.2,12l0.1,0.2l0.1-0.2l3.1-11.9
				c0-0.2,0.1-0.3,0.2-0.4c0.1-0.1,0.2-0.2,0.4-0.2c0.2-0.1,0.4-0.2,0.7-0.2c0.3,0,0.6,0,1.1,0c0.5,0,0.8,0,1.1,0
				c0.2,0,0.5,0.1,0.6,0.2c0.2,0,0.3,0.1,0.4,0.2C368.7,49.4,368.7,49.5,368.7,49.6L368.7,49.6z M382.9,61.3c0,0.9-0.2,1.8-0.5,2.4
				c-0.4,0.7-0.8,1.3-1.5,1.8c-0.7,0.5-1.4,0.8-2.3,1.1c-0.8,0.2-1.8,0.4-2.8,0.4c-0.6,0-1.2-0.1-1.8-0.2c-0.5-0.1-1.1-0.2-1.5-0.4
				c-0.5-0.1-0.8-0.2-1.1-0.4c-0.2-0.2-0.5-0.3-0.6-0.5c-0.2-0.1-0.2-0.3-0.3-0.6c-0.1-0.2-0.1-0.6-0.1-1.1c0-0.4,0-0.6,0-0.8
				c0-0.2,0.1-0.4,0.1-0.5c0.1-0.2,0.2-0.2,0.2-0.2c0.1-0.1,0.2-0.1,0.2-0.1c0.2,0,0.4,0.1,0.6,0.2c0.3,0.2,0.6,0.3,1,0.5
				c0.4,0.2,0.8,0.3,1.4,0.5c0.5,0.2,1.1,0.2,1.8,0.2c0.4,0,0.8,0,1.1-0.1c0.3-0.1,0.6-0.2,0.8-0.4c0.2-0.2,0.4-0.4,0.5-0.6
				c0.1-0.2,0.2-0.5,0.2-0.8c0-0.4-0.1-0.7-0.3-0.9c-0.2-0.3-0.5-0.5-0.9-0.7c-0.4-0.2-0.8-0.4-1.2-0.5c-0.5-0.2-1-0.4-1.5-0.6
				c-0.5-0.2-1-0.4-1.5-0.7c-0.5-0.2-0.9-0.6-1.2-1c-0.4-0.4-0.7-0.8-0.9-1.4c-0.2-0.5-0.3-1.2-0.3-2c0-0.8,0.2-1.5,0.5-2.1
				c0.3-0.6,0.7-1.1,1.3-1.6c0.5-0.5,1.2-0.8,2.1-1.1c0.8-0.3,1.8-0.4,2.8-0.4c0.5,0,1,0,1.5,0.1c0.5,0.1,0.9,0.2,1.3,0.3
				c0.4,0.1,0.7,0.2,1,0.3c0.2,0.2,0.5,0.2,0.5,0.3c0.2,0.2,0.2,0.2,0.2,0.3c0.1,0.1,0.2,0.2,0.2,0.3c0,0.2,0,0.3,0.1,0.5
				c0,0.2,0,0.4,0,0.7c0,0.3,0,0.5,0,0.8c-0.1,0.2-0.1,0.4-0.1,0.5c-0.1,0.1-0.2,0.2-0.2,0.2c-0.1,0-0.2,0.1-0.2,0.1
				c-0.2,0-0.3-0.1-0.5-0.2c-0.2-0.2-0.5-0.2-0.8-0.4c-0.4-0.2-0.8-0.3-1.2-0.4c-0.5-0.2-1-0.2-1.5-0.2c-0.5,0-0.8,0.1-1.1,0.2
				c-0.2,0.1-0.5,0.2-0.7,0.3c-0.2,0.2-0.4,0.4-0.5,0.6c-0.1,0.2-0.2,0.4-0.2,0.7c0,0.3,0.2,0.7,0.4,0.9c0.2,0.2,0.5,0.5,0.9,0.7
				c0.3,0.2,0.8,0.4,1.2,0.5c0.5,0.2,1,0.3,1.5,0.5c0.5,0.2,1,0.5,1.5,0.7c0.5,0.3,0.9,0.6,1.3,1c0.4,0.4,0.7,0.8,0.9,1.4
				C382.7,59.9,382.9,60.6,382.9,61.3L382.9,61.3z M398.6,66c0,0.2,0,0.2-0.1,0.3c0,0.1-0.1,0.1-0.2,0.2c-0.2,0-0.3,0.1-0.5,0.1
				c-0.2,0.1-0.5,0.1-0.8,0.1c-0.3,0-0.5,0-0.8-0.1c-0.2,0-0.4-0.1-0.5-0.1c-0.2-0.1-0.2-0.1-0.3-0.2c0-0.1-0.1-0.2-0.1-0.3V43.5
				c0-0.1,0.1-0.2,0.1-0.2c0.1-0.1,0.2-0.2,0.3-0.2c0.2,0,0.3-0.1,0.5-0.1c0.2-0.1,0.5-0.1,0.8-0.1c0.3,0,0.5,0,0.8,0.1
				c0.2,0,0.3,0.1,0.5,0.1c0.2,0.1,0.2,0.2,0.2,0.2c0.1,0,0.1,0.2,0.1,0.2V66z M416.4,63.6c0,0.2-0.1,0.4-0.1,0.5
				c0,0.2,0,0.2-0.1,0.4c0,0.1,0,0.2-0.1,0.2c-0.1,0.1-0.2,0.2-0.3,0.4c-0.2,0.2-0.4,0.3-0.8,0.5c-0.4,0.2-0.8,0.5-1.2,0.6
				c-0.5,0.2-0.9,0.3-1.5,0.5c-0.5,0.1-1.1,0.2-1.7,0.2c-1.1,0-2.2-0.2-3.1-0.6c-0.9-0.4-1.7-0.9-2.3-1.7c-0.6-0.8-1.1-1.7-1.4-2.8
				c-0.3-1.1-0.5-2.3-0.5-3.7c0-1.6,0.2-3,0.5-4.1c0.4-1.1,1-2.1,1.6-2.8c0.7-0.8,1.5-1.3,2.4-1.7c0.9-0.4,1.9-0.5,3.1-0.5
				c0.5,0,1,0.1,1.5,0.2c0.5,0.1,1,0.2,1.4,0.4c0.4,0.2,0.8,0.3,1.1,0.5c0.4,0.2,0.6,0.4,0.8,0.5c0.2,0.2,0.2,0.3,0.3,0.4
				c0,0.1,0.1,0.2,0.1,0.3c0.1,0.1,0.1,0.2,0.1,0.4c0,0.2,0.1,0.3,0.1,0.5c0,0.5-0.1,0.8-0.2,1c-0.1,0.2-0.2,0.3-0.4,0.3
				c-0.2,0-0.4-0.2-0.6-0.3c-0.2-0.2-0.5-0.5-0.9-0.7c-0.4-0.2-0.8-0.5-1.3-0.7c-0.5-0.2-1.1-0.3-1.8-0.3c-1.5,0-2.5,0.5-3.3,1.7
				c-0.8,1.1-1.2,2.7-1.2,4.8c0,1.1,0.2,2,0.3,2.8c0.2,0.8,0.5,1.5,0.9,2c0.4,0.5,0.8,0.9,1.5,1.2c0.5,0.2,1.1,0.4,1.9,0.4
				c0.7,0,1.3-0.2,1.8-0.4c0.5-0.2,0.9-0.5,1.4-0.7c0.4-0.2,0.7-0.5,0.9-0.7c0.3-0.2,0.5-0.4,0.6-0.4c0.1,0,0.2,0.1,0.2,0.1
				c0.1,0.1,0.1,0.2,0.2,0.3c0.1,0.1,0.1,0.2,0.1,0.4C416.3,63.1,416.4,63.3,416.4,63.6L416.4,63.6z M435.2,57.7
				c0,1.3-0.2,2.5-0.5,3.7c-0.3,1.1-0.8,2.1-1.5,2.9c-0.7,0.8-1.6,1.5-2.6,1.9c-1.1,0.5-2.3,0.7-3.7,0.7c-1.4,0-2.5-0.2-3.5-0.6
				c-1-0.4-1.8-1-2.5-1.8c-0.6-0.8-1.1-1.7-1.5-2.8c-0.3-1.1-0.5-2.4-0.5-3.7c0-1.3,0.2-2.5,0.5-3.7c0.4-1.1,0.9-2.1,1.6-2.9
				c0.7-0.8,1.5-1.5,2.6-1.9c1-0.4,2.2-0.6,3.6-0.6c1.4,0,2.5,0.2,3.5,0.5c1,0.5,1.8,1,2.5,1.8c0.7,0.8,1.1,1.7,1.5,2.8
				C435,55.1,435.2,56.3,435.2,57.7L435.2,57.7z M432,57.8c0-0.8-0.1-1.7-0.2-2.4c-0.2-0.8-0.5-1.5-0.8-2.1c-0.3-0.5-0.8-1-1.5-1.4
				c-0.6-0.3-1.5-0.5-2.4-0.5c-0.9,0-1.7,0.2-2.3,0.5c-0.6,0.4-1.1,0.8-1.6,1.4c-0.4,0.5-0.7,1.2-0.9,2.1c-0.2,0.8-0.3,1.6-0.3,2.5
				c0,0.9,0.1,1.8,0.3,2.6c0.2,0.8,0.4,1.5,0.8,2.1c0.4,0.5,0.9,1,1.5,1.4c0.7,0.3,1.5,0.5,2.4,0.5c0.8,0,1.6-0.2,2.3-0.5
				c0.6-0.4,1.1-0.8,1.6-1.4c0.4-0.5,0.7-1.2,0.8-2.1C432,59.7,432,58.8,432,57.8L432,57.8z M453.7,66.1c0,0.1,0,0.2-0.1,0.2
				c0,0.1-0.1,0.1-0.2,0.2c-0.1,0.1-0.2,0.1-0.5,0.1c-0.2,0.1-0.4,0.1-0.7,0.1c-0.3,0-0.5,0-0.8-0.1c-0.2,0-0.4,0-0.5-0.1
				c-0.1-0.1-0.2-0.1-0.2-0.2c-0.1-0.1-0.1-0.2-0.1-0.2v-9.6c0-0.9-0.1-1.7-0.2-2.2c-0.2-0.6-0.4-1.1-0.6-1.5
				c-0.3-0.4-0.6-0.7-1.1-0.9c-0.5-0.2-1-0.3-1.5-0.3c-0.8,0-1.5,0.2-2.2,0.8c-0.8,0.5-1.6,1.3-2.4,2.4v11.5c0,0.1-0.1,0.2-0.1,0.2
				c-0.1,0.1-0.2,0.1-0.2,0.2c-0.2,0.1-0.3,0.1-0.5,0.1c-0.2,0.1-0.5,0.1-0.8,0.1c-0.3,0-0.5,0-0.8-0.1c-0.2,0-0.3,0-0.5-0.1
				c-0.1-0.1-0.2-0.1-0.2-0.2c0-0.1-0.1-0.2-0.1-0.2V49.6c0-0.1,0.1-0.2,0.1-0.2c0.1-0.1,0.1-0.1,0.2-0.2c0.1-0.1,0.2-0.1,0.4-0.2
				c0.2,0,0.5,0,0.7,0c0.3,0,0.5,0,0.7,0c0.2,0.1,0.3,0.1,0.4,0.2c0.2,0.1,0.2,0.1,0.2,0.2c0.1,0.1,0.1,0.2,0.1,0.2v2.2
				c0.9-1.1,1.8-1.8,2.8-2.3c0.9-0.5,1.8-0.7,2.8-0.7c1.1,0,2,0.2,2.8,0.5c0.8,0.4,1.4,0.8,1.8,1.5c0.5,0.6,0.8,1.4,0.9,2.2
				c0.2,0.8,0.3,1.8,0.3,3V66.1z M469.5,61.6c0,0.8-0.2,1.6-0.5,2.2c-0.3,0.7-0.7,1.2-1.3,1.7c-0.5,0.5-1.2,0.8-2,1
				c-0.8,0.2-1.7,0.4-2.6,0.4c-0.6,0-1.1-0.1-1.7-0.2c-0.5-0.1-1-0.2-1.5-0.3c-0.4-0.2-0.8-0.3-1.1-0.5c-0.2-0.2-0.5-0.3-0.6-0.4
				c-0.2-0.2-0.2-0.3-0.3-0.5c-0.1-0.2-0.1-0.5-0.1-0.9c0-0.2,0-0.4,0.1-0.5c0-0.2,0-0.3,0.1-0.4c0-0.2,0.1-0.2,0.2-0.2
				c0.1-0.1,0.2-0.1,0.2-0.1c0.1,0,0.3,0.1,0.5,0.2c0.3,0.2,0.6,0.4,1,0.5c0.4,0.2,0.8,0.4,1.4,0.5c0.5,0.2,1.1,0.3,1.8,0.3
				c0.5,0,1-0.1,1.4-0.2c0.5-0.1,0.8-0.2,1.1-0.5c0.3-0.2,0.5-0.5,0.7-0.8c0.2-0.3,0.3-0.7,0.3-1.1c0-0.5-0.2-0.8-0.4-1.1
				c-0.2-0.3-0.5-0.6-0.9-0.8c-0.4-0.2-0.8-0.5-1.3-0.6c-0.5-0.2-1-0.4-1.5-0.6c-0.5-0.2-1-0.5-1.5-0.7c-0.5-0.3-0.9-0.6-1.3-1
				c-0.4-0.4-0.7-0.8-0.9-1.3c-0.2-0.5-0.4-1.1-0.4-1.9c0-0.6,0.2-1.2,0.4-1.8c0.3-0.6,0.6-1.1,1.1-1.5c0.5-0.5,1.1-0.8,1.8-1.1
				c0.8-0.3,1.6-0.4,2.7-0.4c0.4,0,0.8,0,1.3,0.1c0.4,0.1,0.8,0.2,1.1,0.3c0.4,0.1,0.7,0.2,0.9,0.4c0.2,0.1,0.5,0.2,0.5,0.3
				c0.2,0.2,0.2,0.2,0.3,0.3c0,0.1,0.1,0.2,0.1,0.2c0,0.1,0,0.2,0,0.3c0.1,0.2,0.1,0.3,0.1,0.5c0,0.2,0,0.5-0.1,0.5
				c0,0.2,0,0.3-0.1,0.4c0,0.2-0.1,0.2-0.2,0.2c-0.1,0.1-0.1,0.1-0.2,0.1c-0.2,0-0.3-0.1-0.5-0.2c-0.2-0.2-0.5-0.2-0.8-0.4
				c-0.3-0.2-0.7-0.3-1.1-0.5c-0.5-0.2-1-0.2-1.5-0.2c-0.5,0-1,0.1-1.4,0.2c-0.4,0.1-0.7,0.2-0.9,0.5c-0.2,0.2-0.5,0.5-0.6,0.8
				c-0.1,0.2-0.2,0.6-0.2,0.9c0,0.5,0.2,0.8,0.4,1.2c0.2,0.3,0.5,0.5,0.9,0.8c0.4,0.2,0.8,0.5,1.3,0.6c0.5,0.2,1,0.4,1.5,0.6
				c0.5,0.2,1.1,0.5,1.5,0.7c0.5,0.2,1,0.5,1.4,0.9c0.4,0.4,0.7,0.8,0.9,1.3C469.3,60.3,469.5,60.9,469.5,61.6L469.5,61.6z
				 M495.2,59.9c0,1.1-0.2,2.1-0.6,3c-0.5,0.8-1,1.5-1.7,2.1c-0.8,0.6-1.6,1.1-2.6,1.4c-1,0.3-2,0.5-3.1,0.5c-0.8,0-1.5-0.1-2.2-0.2
				c-0.7-0.2-1.2-0.3-1.8-0.5c-0.5-0.2-1-0.4-1.4-0.6c-0.3-0.2-0.6-0.4-0.7-0.5c-0.2-0.2-0.3-0.3-0.4-0.5c0-0.2-0.1-0.5-0.1-0.9
				c0-0.3,0-0.5,0.1-0.7c0-0.2,0-0.3,0.1-0.4c0.1-0.2,0.2-0.2,0.2-0.2c0.1-0.1,0.2-0.1,0.3-0.1c0.2,0,0.4,0.1,0.7,0.3
				c0.3,0.2,0.7,0.5,1.2,0.7c0.5,0.2,1.1,0.5,1.8,0.7c0.7,0.2,1.5,0.3,2.4,0.3c0.7,0,1.3-0.1,1.8-0.3c0.6-0.2,1.1-0.5,1.5-0.8
				c0.5-0.3,0.8-0.8,0.9-1.2c0.2-0.5,0.4-1,0.4-1.6c0-0.7-0.2-1.3-0.5-1.8c-0.3-0.5-0.7-0.8-1.2-1.2c-0.5-0.4-1.1-0.7-1.7-1
				c-0.6-0.3-1.3-0.6-2-0.9c-0.6-0.3-1.3-0.6-1.9-1c-0.6-0.4-1.2-0.8-1.7-1.4c-0.5-0.5-0.9-1.1-1.2-1.8c-0.3-0.7-0.5-1.5-0.5-2.4
				c0-1,0.2-1.8,0.5-2.7c0.4-0.8,0.8-1.4,1.5-1.9c0.7-0.5,1.5-0.9,2.3-1.1c0.9-0.3,1.8-0.5,2.8-0.5c0.5,0,1.1,0.1,1.6,0.2
				c0.5,0.1,1,0.2,1.5,0.4c0.5,0.2,0.9,0.3,1.3,0.5c0.3,0.2,0.6,0.3,0.7,0.4c0.2,0.2,0.2,0.2,0.2,0.3c0,0.1,0.1,0.2,0.1,0.2
				c0,0.2,0.1,0.2,0.1,0.4c0,0.2,0,0.4,0,0.6c0,0.2,0,0.4,0,0.5c0,0.2-0.1,0.3-0.1,0.5c-0.1,0.1-0.2,0.2-0.2,0.2
				c-0.1,0.1-0.2,0.1-0.2,0.1c-0.2,0-0.4-0.1-0.7-0.2c-0.2-0.2-0.6-0.4-1-0.6c-0.5-0.2-0.9-0.4-1.5-0.5c-0.6-0.2-1.2-0.3-1.9-0.3
				c-0.7,0-1.2,0.2-1.8,0.3c-0.5,0.2-0.8,0.4-1.1,0.7c-0.3,0.3-0.5,0.6-0.8,1c-0.2,0.5-0.2,0.8-0.2,1.3c0,0.7,0.2,1.2,0.5,1.7
				c0.3,0.5,0.8,0.9,1.2,1.3c0.5,0.3,1.1,0.7,1.8,1c0.6,0.3,1.3,0.6,1.9,0.9c0.7,0.3,1.4,0.6,2,1c0.7,0.4,1.2,0.8,1.8,1.3
				c0.5,0.5,0.8,1.1,1.2,1.8C495,58.1,495.2,59,495.2,59.9L495.2,59.9z"/>
			<path class="st4" d="M513.6,57.2c0,0.5-0.2,0.8-0.4,1c-0.2,0.2-0.5,0.3-0.8,0.3h-10.7c0,0.9,0.1,1.8,0.2,2.4
				c0.2,0.8,0.5,1.4,0.9,1.9c0.5,0.5,1,0.9,1.7,1.2c0.7,0.2,1.5,0.4,2.4,0.4c0.8,0,1.5-0.1,2.1-0.2c0.6-0.2,1.1-0.3,1.5-0.5
				c0.5-0.2,0.8-0.3,1.1-0.4c0.3-0.2,0.5-0.2,0.7-0.2c0.1,0,0.2,0,0.2,0.1c0.1,0,0.1,0.1,0.2,0.2c0,0.1,0.1,0.2,0.1,0.4
				c0,0.2,0,0.3,0,0.5c0,0.2,0,0.3,0,0.5c0,0.1,0,0.2-0.1,0.3c0,0.1,0,0.2-0.1,0.2c0,0.1-0.1,0.2-0.2,0.2c-0.1,0.1-0.2,0.2-0.6,0.4
				c-0.3,0.2-0.7,0.3-1.2,0.5c-0.5,0.1-1.1,0.2-1.8,0.4c-0.7,0.1-1.4,0.2-2.1,0.2c-1.4,0-2.5-0.2-3.6-0.6c-1-0.3-1.8-0.9-2.5-1.6
				c-0.7-0.8-1.2-1.7-1.5-2.8c-0.4-1.1-0.5-2.4-0.5-3.9c0-1.4,0.2-2.7,0.5-3.7c0.4-1.1,0.9-2.1,1.5-2.9c0.7-0.8,1.5-1.4,2.5-1.8
				c1-0.5,2.1-0.6,3.2-0.6c1.3,0,2.4,0.2,3.3,0.6c0.9,0.4,1.7,0.9,2.2,1.6c0.6,0.8,1.1,1.5,1.3,2.5c0.3,0.9,0.5,1.9,0.5,3V57.2z
				 M510.6,56.4c0.1-1.6-0.3-2.8-1.1-3.7c-0.7-0.9-1.8-1.4-3.2-1.4c-0.8,0-1.5,0.2-2,0.5c-0.5,0.2-1,0.6-1.4,1.1
				c-0.4,0.5-0.7,1-0.9,1.6c-0.2,0.6-0.3,1.3-0.3,2H510.6z M526.5,64.9c0,0.3,0,0.6-0.1,0.8c0,0.2-0.1,0.3-0.2,0.4
				c-0.1,0.2-0.2,0.2-0.4,0.3c-0.2,0.1-0.5,0.2-0.7,0.2c-0.2,0.1-0.5,0.1-0.8,0.2c-0.3,0-0.6,0-0.8,0c-0.8,0-1.6-0.1-2.2-0.3
				c-0.6-0.2-1.1-0.5-1.5-1c-0.4-0.5-0.7-1.1-0.8-1.8c-0.2-0.7-0.3-1.5-0.3-2.4v-9.6h-2.3c-0.2,0-0.3-0.1-0.5-0.3
				c-0.1-0.2-0.2-0.5-0.2-0.9c0-0.2,0.1-0.5,0.1-0.6c0-0.2,0.1-0.2,0.1-0.4c0.1-0.1,0.2-0.2,0.2-0.2c0.1,0,0.2-0.1,0.2-0.1h2.3v-3.8
				c0-0.1,0.1-0.2,0.1-0.2c0.1-0.1,0.2-0.2,0.2-0.2c0.2-0.1,0.3-0.1,0.5-0.1c0.2-0.1,0.5-0.1,0.8-0.1c0.3,0,0.5,0,0.8,0.1
				c0.2,0,0.3,0,0.5,0.1c0.1,0.1,0.2,0.2,0.2,0.2c0,0,0.1,0.2,0.1,0.2v3.8h4.1c0.2,0,0.2,0.1,0.3,0.1c0.1,0.1,0.1,0.2,0.2,0.2
				c0.1,0.2,0.1,0.2,0.2,0.4c0,0.2,0,0.4,0,0.6c0,0.5-0.1,0.8-0.2,0.9c-0.1,0.2-0.2,0.3-0.5,0.3h-4.1v9.1c0,1.1,0.2,2,0.5,2.5
				c0.4,0.6,0.9,0.9,1.8,0.9c0.2,0,0.5-0.1,0.7-0.1c0.2-0.1,0.5-0.2,0.6-0.2c0.2,0,0.3-0.1,0.4-0.2c0.2-0.1,0.2-0.1,0.4-0.1
				c0.1,0,0.1,0,0.2,0.1c0.1,0,0.1,0.1,0.2,0.2c0,0.1,0,0.2,0.1,0.3C526.5,64.5,526.5,64.7,526.5,64.9L526.5,64.9z"/>
		</g>
	</g>
	<path class="st1" d="M694.2,590.2c5.4,0,10.3,2.2,13.8,5.7c3.7,3.6,5.7,8.5,5.7,13.8c0,5.5-2.1,10.3-5.7,13.9
		c-3.5,3.5-8.4,5.7-13.8,5.7c-5.3,0-10.2-2.3-13.8-5.7c-3.5-3.6-5.7-8.4-5.7-13.9c0-5.3,2.2-10.2,5.7-13.8
		C684,592.3,688.9,590.2,694.2,590.2L694.2,590.2z M700.5,608.9L700.5,608.9c0.8,0.4,0.8,1.2,0,1.7l-9.6,5.2v-12.1L700.5,608.9z"/>
	<path class="st1" d="M92.9,722.5V708h-8.3l11.4-20.8c0.1-0.3,0.4-0.3,0.4,0l11.4,20.8h-8.1H99v8.4c0,3.3,2.8,6,6,6
		c9.1,0,8.6,0,17.6,0c1.6,0,3.1,1.4,3.1,3.1l0,0c0,1.6-1.4,3-3.1,3c-11,0-12.6,0-23.7,0C95.7,728.5,92.9,725.8,92.9,722.5
		L92.9,722.5z"/>
	<path class="st1" d="M200.8,718.8c1.3,1.5,3.6,1.5,5,0l18.1-20.5c1.3-1.5,0.4-2.8-2.1-2.8h-37.1c-2.4,0-3.4,1.3-2.1,2.8
		L200.8,718.8z"/>
	<path class="st1" d="M312.9,705.1c1.6,1.5,1.6,3.8,0,5.2l-21.2,18.8c-1.6,1.5-2.9,0.5-2.9-2.1v-38.4c0-2.6,1.3-3.6,2.9-2.1
		L312.9,705.1z"/>
	<g>
		<polygon class="st1" points="494,689 499.5,689 484.1,707.8 499.5,726.5 494,726.5 478.6,707.8 		"/>
		<polygon class="st1" points="502.8,689 508.3,689 493,707.8 508.3,726.5 502.8,726.5 487.5,707.8 		"/>
		<polygon class="st2" points="511.7,689 517.2,689 501.9,707.8 517.2,726.5 511.7,726.5 496.4,707.8 		"/>
	</g>
	<g>
		<polygon class="st2" points="578,711.6 578,706.2 596.1,721.1 614.2,706.2 614.2,711.6 596.1,726.5 		"/>
		<polygon class="st1" points="578,703 578,697.6 596.1,712.5 614.2,697.6 614.2,703 596.1,717.9 		"/>
		<polygon class="st1" points="578,694.3 578,689 596.1,703.9 614.2,689 614.2,694.3 596.1,709.3 		"/>
	</g>
	<polygon class="st1" points="416.9,701.4 416.9,728.5 399.7,714.1 382.6,728.5 382.6,701.4 399.7,687 	"/>
	<polygon class="st1" points="693.5,687.2 699.9,693.7 690.4,703.2 715.6,703.2 715.6,712.4 690.4,712.4 699.9,721.9 693.5,728.4 
		672.9,707.8 	"/>
</g>
<g id="Layer_1">
</g>
</svg>
